<svg width="53" height="53" viewBox="0 0 53 53" fill="none" xmlns="http://www.w3.org/2000/svg">
<g clip-path="url(#clip0_8_1290)">
<path d="M26.4747 0.0873413C11.8977 0.0873413 0.0800781 11.9046 0.0800781 26.4817C0.0800781 41.0594 11.8977 52.8757 26.4747 52.8757C41.0534 52.8757 52.8697 41.0594 52.8697 26.4817C52.8697 11.9056 41.0537 0.0873413 26.4747 0.0873413ZM38.5792 38.1556C38.1064 38.9309 37.0915 39.1768 36.3161 38.7008C30.1189 34.9154 22.3174 34.0581 13.1297 36.1573C12.2444 36.359 11.3619 35.8043 11.1601 34.9186C10.9575 34.0329 11.51 33.1504 12.3976 32.9487C22.452 30.6516 31.0765 31.6407 38.0339 35.8925C38.8092 36.3684 39.0551 37.3802 38.5792 38.1556ZM41.8098 30.9687C41.2141 31.9369 39.9471 32.2427 38.9794 31.647C31.8846 27.286 21.0696 26.0231 12.6778 28.5704C11.5894 28.8992 10.4399 28.2858 10.1096 27.1994C9.78183 26.111 10.3955 24.9637 11.4819 24.6328C21.0677 21.7243 32.9846 23.1331 41.1322 28.1399C42.0998 28.7356 42.4055 30.0023 41.8098 30.9687ZM42.0872 23.4849C33.5803 18.4321 19.545 17.9676 11.423 20.4326C10.1188 20.8282 8.73951 20.0919 8.34426 18.7877C7.94902 17.4828 8.68467 16.1045 9.98985 15.708C19.3134 12.8776 34.8127 13.4245 44.6068 19.2387C45.7824 19.9349 46.1669 21.45 45.4704 22.6216C44.777 23.7947 43.2565 24.1815 42.0872 23.4849Z" fill="#F5F5F5"/>
</g>
<defs>
<clipPath id="clip0_8_1290">
<rect width="53" height="53" fill="white"/>
</clipPath>
</defs>


</svg>
