<svg width="426" height="44" viewBox="0 0 426 44" fill="none" xmlns="http://www.w3.org/2000/svg">
<path d="M29.7046 28H31.5943V17.4312H29.7119L26.9507 19.3647V21.1812L29.5801 19.3354H29.7046V28ZM35.7195 26.5425C36.4153 26.5425 36.8914 26.0444 36.8914 25.3853C36.8914 24.7188 36.4153 24.228 35.7195 24.228C35.031 24.228 34.5476 24.7188 34.5476 25.3853C34.5476 26.0444 35.031 26.5425 35.7195 26.5425ZM35.7195 21.1958C36.4153 21.1958 36.8914 20.7051 36.8914 20.0459C36.8914 19.3794 36.4153 18.8887 35.7195 18.8887C35.031 18.8887 34.5476 19.3794 34.5476 20.0459C34.5476 20.7051 35.031 21.1958 35.7195 21.1958ZM39.0098 20.5732H40.7822C40.7822 19.4746 41.5146 18.7202 42.6646 18.7202C43.7705 18.7202 44.4297 19.4453 44.4297 20.3901C44.4297 21.1812 44.1074 21.6865 42.7744 23.0195L39.1123 26.689V28H46.4512V26.396H41.6758V26.2715L43.9463 24.0596C45.7627 22.3018 46.2974 21.4375 46.2974 20.207C46.2974 18.4492 44.8691 17.1675 42.7671 17.1675C40.5625 17.1675 39.0098 18.5664 39.0098 20.5732ZM52.2024 28.2637C54.7292 28.2637 56.2307 26.2129 56.2307 22.7192C56.2307 19.2109 54.7073 17.1675 52.2024 17.1675C49.6902 17.1675 48.1667 19.2109 48.1667 22.7046C48.1667 26.2129 49.6682 28.2637 52.2024 28.2637ZM52.2024 26.6963C50.8621 26.6963 50.0784 25.3267 50.0784 22.7046C50.0784 20.1045 50.8767 18.7422 52.2024 18.7422C53.5281 18.7422 54.3191 20.0972 54.3191 22.7046C54.3191 25.3267 53.5427 26.6963 52.2024 26.6963Z" fill="white"/>
<path opacity="0.35" fill-rule="evenodd" clip-rule="evenodd" d="M389.5 17.5H408.5C409.881 17.5 411 18.6193 411 20V26.5C411 27.8807 409.881 29 408.5 29H389.5C388.119 29 387 27.8807 387 26.5V20C387 18.6193 388.119 17.5 389.5 17.5ZM389.5 18.5C388.672 18.5 388 19.1716 388 20V26.5C388 27.3284 388.672 28 389.5 28H408.5C409.328 28 410 27.3284 410 26.5V20C410 19.1716 409.328 18.5 408.5 18.5H389.5Z" fill="white"/>
<path opacity="0.4" fill-rule="evenodd" clip-rule="evenodd" d="M412 20.7998C412.89 21.255 413.5 22.1813 413.5 23.2499C413.5 24.3186 412.89 25.2449 412 25.7001V20.7998Z" fill="white"/>
<path fill-rule="evenodd" clip-rule="evenodd" d="M390 19.5H408C408.552 19.5 409 19.9477 409 20.5V26C409 26.5523 408.552 27 408 27H390C389.448 27 389 26.5523 389 26V20.5C389 19.9477 389.448 19.5 390 19.5Z" fill="white"/>
<path fill-rule="evenodd" clip-rule="evenodd" d="M380.983 20.5229C379.072 18.8906 376.657 18 374.133 18C371.601 18 369.18 18.8959 367.266 20.5371L367.104 20.6765C366.972 20.7892 366.965 20.9895 367.087 21.1118L368.214 22.2356C368.324 22.3447 368.498 22.3521 368.617 22.2527L368.756 22.1354C370.263 20.8694 372.155 20.1804 374.133 20.1804C376.104 20.1804 377.989 20.8647 379.494 22.1228L379.634 22.2395C379.752 22.3385 379.926 22.3308 380.036 22.2219L381.163 21.098C381.285 20.9756 381.278 20.7749 381.146 20.6623L380.983 20.5229ZM374.133 21.4698C375.724 21.4698 377.251 21.9975 378.495 22.9749L378.671 23.113C378.811 23.2231 378.824 23.4306 378.697 23.5564L377.567 24.6841C377.462 24.7884 377.297 24.8003 377.178 24.7122L377.04 24.6098C376.2 23.9852 375.186 23.6501 374.133 23.6501C373.073 23.6501 372.053 23.9893 371.21 24.6211L371.072 24.7245C370.954 24.8133 370.787 24.8016 370.683 24.697L369.552 23.5698C369.426 23.4442 369.438 23.2373 369.578 23.1269L369.753 22.9887C371 22.0027 372.534 21.4698 374.133 21.4698ZM374.133 24.9396C374.772 24.9396 375.394 25.1076 375.941 25.4281L376.163 25.5579C376.331 25.6563 376.361 25.8867 376.223 26.0242L374.329 27.913C374.212 28.029 374.024 28.029 373.907 27.913L372.026 26.0363C371.888 25.8994 371.917 25.6702 372.084 25.5711L372.303 25.4406C372.856 25.1121 373.485 24.9396 374.133 24.9396Z" fill="white"/>
<path opacity="0.25" fill-rule="evenodd" clip-rule="evenodd" d="M360.5 18H361.5C362.052 18 362.5 18.4477 362.5 19V27C362.5 27.5523 362.052 28 361.5 28H360.5C359.948 28 359.5 27.5523 359.5 27V19C359.5 18.4477 359.948 18 360.5 18Z" fill="white"/>
<path fill-rule="evenodd" clip-rule="evenodd" d="M357 20H356C355.448 20 355 20.4477 355 21V27C355 27.5523 355.448 28 356 28H357C357.552 28 358 27.5523 358 27V21C358 20.4477 357.552 20 357 20ZM351.5 22H352.5C353.052 22 353.5 22.4477 353.5 23V27C353.5 27.5523 353.052 28 352.5 28H351.5C350.948 28 350.5 27.5523 350.5 27V23C350.5 22.4477 350.948 22 351.5 22ZM347 23.5H348C348.552 23.5 349 23.9477 349 24.5V27C349 27.5523 348.552 28 348 28H347C346.448 28 346 27.5523 346 27V24.5C346 23.9477 346.448 23.5 347 23.5Z" fill="white"/>
<path fill-rule="evenodd" clip-rule="evenodd" d="M70.678 28.7902L75.2402 18.25L64.7 22.8122H70.678V28.7902Z" fill="white"/>
</svg>
